<svg width="80" height="38" viewBox="0 0 80 38" fill="none" xmlns="http://www.w3.org/2000/svg">
<path d="M80 16.8198H0V17.0678H80V16.8198Z" fill="black"/>
<path d="M3.46336 28.3429H3.64227V28.2359C3.64227 27.724 3.22545 27.5572 2.77342 27.5572C2.17832 27.5572 1.57106 27.8189 1.08283 28.1408L0.36908 26.6886C0.892646 26.2841 1.96383 25.8911 2.9636 25.8911C4.65382 25.8911 5.70145 26.8311 5.70145 28.3902V32.1629H3.8208V31.7945C3.8208 31.5919 3.84485 31.4131 3.84485 31.4131H3.8208C3.41613 31.9849 2.70163 32.3058 1.99978 32.3058C0.821606 32.3058 0.000488334 31.4969 0.000488334 30.4375C0.000116395 28.7947 1.95193 28.3429 3.46336 28.3429ZM2.61869 30.7706C3.21367 30.7706 3.66533 30.1873 3.66533 29.6873V29.5209H3.47527C2.84471 29.5209 2.03512 29.6873 2.03512 30.247C2.03512 30.533 2.23745 30.7706 2.61869 30.7706Z" fill="#092A5E"/>
<path d="M9.48582 25.8912C10.0337 25.8912 10.6885 25.974 11.0928 26.3787H11.1167C11.1167 26.3787 11.1045 26.2601 11.1045 26.1053V23.6535H13.1638V32.1632H11.2352V31.7589C11.2352 31.5684 11.2474 31.4134 11.2474 31.4134H11.2238C10.8425 31.9968 10.1761 32.306 9.44987 32.306C7.78395 32.306 6.68896 30.9971 6.68896 29.0924C6.68921 27.1527 7.85536 25.8912 9.48582 25.8912ZM9.96228 30.6041C10.5809 30.6041 11.1644 30.1518 11.1644 29.0924C11.1644 28.3547 10.7714 27.6287 9.96228 27.6287C9.31907 27.6287 8.75992 28.1526 8.75992 29.0924C8.75992 30.0092 9.2479 30.6041 9.96228 30.6041Z" fill="#092A5E"/>
<path d="M13.8901 26.0339H16.0566L17.009 29.2953C17.1272 29.6873 17.2347 30.3547 17.2347 30.3547H17.2583C17.2583 30.3547 17.3658 29.7 17.4847 29.2953L18.4251 26.0339H20.6029L18.52 32.1631H16.0089L13.8901 26.0339Z" fill="#092A5E"/>
<path d="M24.2932 28.3429H24.4714V28.2359C24.4714 27.724 24.0553 27.5572 23.6026 27.5572C23.0073 27.5572 22.4007 27.8189 21.9126 28.1408L21.1984 26.6886C21.722 26.2841 22.7937 25.8911 23.7934 25.8911C25.4832 25.8911 26.5307 26.8311 26.5307 28.3902V32.1629H24.6504V31.7945C24.6504 31.5919 24.6741 31.4131 24.6741 31.4131H24.6504C24.2455 31.9849 23.5314 32.3058 22.8294 32.3058C21.6506 32.3058 20.8296 31.4969 20.8296 30.4375C20.8296 28.7947 22.7813 28.3429 24.2932 28.3429ZM23.4482 30.7706C24.0431 30.7706 24.4955 30.1873 24.4955 29.6873V29.5209H24.3049C23.6739 29.5209 22.865 29.6873 22.865 30.247C22.865 30.533 23.0673 30.7706 23.4482 30.7706Z" fill="#092A5E"/>
<path d="M27.8398 26.0339H29.8158V26.5691C29.8158 26.7712 29.7918 26.9505 29.7918 26.9505H29.8158C30.1017 26.4735 30.6846 25.8911 31.7678 25.8911C33.0052 25.8911 33.9695 26.462 33.9695 28.1878V32.1629H31.9103V28.5693C31.9103 27.9973 31.6842 27.7594 31.2323 27.7594C30.3153 27.7594 29.8989 28.5213 29.8989 29.3898V32.1629H27.8398V26.0339Z" fill="#092A5E"/>
<path d="M35.6477 27.7479H34.8628V26.1408H35.7076V24.3795H37.7071V26.1408H38.9922V27.7479H37.7071V29.6288C37.7071 30.3185 38.4094 30.4135 38.8022 30.4135C38.8735 30.4135 38.9451 30.4135 39.0759 30.4018V32.1873C38.9209 32.1989 38.7544 32.2231 38.5163 32.2231C37.5404 32.2231 35.6476 31.961 35.6476 29.9021V27.7479H35.6477Z" fill="#092A5E"/>
<path d="M43.2174 28.3429H43.3962V28.2359C43.3962 27.724 42.9796 27.5572 42.527 27.5572C41.9317 27.5572 41.3252 27.8189 40.8366 28.1408L40.1234 26.6886C40.6468 26.2841 41.7176 25.8911 42.7173 25.8911C44.4078 25.8911 45.4552 26.8311 45.4552 28.3902V32.1629H43.5743V31.7945C43.5743 31.5919 43.5986 31.4131 43.5986 31.4131H43.5743C43.17 31.9849 42.4554 32.3058 41.7533 32.3058C40.575 32.3058 39.7544 31.4969 39.7544 30.4375C39.7545 28.7947 41.7062 28.3429 43.2174 28.3429ZM42.3725 30.7706C42.9677 30.7706 43.4192 30.1873 43.4192 29.6873V29.5209H43.2299C42.5987 29.5209 41.7892 29.6873 41.7892 30.247C41.7892 30.533 41.9911 30.7706 42.3725 30.7706Z" fill="#092A5E"/>
<path d="M49.3476 32.9491C50.0853 32.9491 50.7635 32.6755 50.7635 31.7704V31.5682C50.7635 31.497 50.7758 31.3419 50.7758 31.3419H50.7522C50.3948 31.7704 49.9306 31.9851 49.2166 31.9851C47.3722 31.9851 46.4551 30.4732 46.4551 28.9024C46.4551 27.3437 47.3476 25.8913 49.2045 25.8913C49.788 25.8913 50.4429 26.0579 50.8711 26.4864H50.9071C50.9071 26.4864 50.8944 26.4152 50.8944 26.3433V26.0341H52.8233V31.6039C52.8233 33.8421 51.038 34.6632 49.3597 34.6632C48.5381 34.6632 47.6335 34.4246 47.0384 34.1155L47.6211 32.5563C48.1334 32.8065 48.7285 32.9491 49.3476 32.9491ZM49.7041 30.2709C50.2401 30.2709 50.8116 29.9975 50.8116 28.9258C50.8116 27.8432 50.2402 27.6043 49.621 27.6043C48.8951 27.6043 48.5263 28.1283 48.5263 28.8311C48.5263 29.5928 48.8835 30.2709 49.7041 30.2709Z" fill="#092A5E"/>
<path d="M57.0484 25.8912C58.8576 25.8912 59.8813 27.1527 59.8813 28.8543C59.8813 29.069 59.8575 29.2831 59.8342 29.4976H55.9658C56.12 30.2471 56.7391 30.5928 57.394 30.5928C58.0009 30.5928 58.5842 30.3068 59.084 29.9734L59.846 31.4133C59.1795 31.9851 58.1674 32.3059 57.2275 32.3059C55.0374 32.3059 53.8589 30.7236 53.8589 29.0923C53.8588 27.2956 55.073 25.8912 57.0484 25.8912ZM57.8462 28.3191C57.8462 27.8191 57.5247 27.4022 57.0009 27.4022C56.4058 27.4022 56.1202 27.8306 56.0133 28.3191H57.8462Z" fill="#092A5E"/>
<path d="M1.28688 34.0392C1.54885 34.0392 1.83822 34.1309 2.01687 34.3253L1.87814 34.5277C1.73903 34.3844 1.51711 34.2814 1.29494 34.2814C0.858777 34.2814 0.517709 34.6107 0.517709 35.0863C0.517709 35.5545 0.858777 35.8838 1.30312 35.8838C1.53285 35.8838 1.78267 35.7846 1.94124 35.6102L2.06411 35.8127C1.88979 36.0064 1.59212 36.1294 1.28688 36.1294C0.696239 36.1294 0.239746 35.705 0.239746 35.0864C0.239746 34.4718 0.700207 34.0392 1.28688 34.0392Z" fill="#092A5E"/>
<path d="M3.4333 34.0392C4.01588 34.0392 4.48762 34.4835 4.48762 35.0746C4.48762 35.6775 4.01588 36.1293 3.4333 36.1293C2.85035 36.1293 2.38232 35.6775 2.38232 35.0746C2.38232 34.4835 2.85035 34.0392 3.4333 34.0392ZM3.4333 35.8837C3.86165 35.8837 4.2104 35.5429 4.2104 35.0746C4.2104 34.622 3.86165 34.2814 3.4333 34.2814C3.0052 34.2814 2.65992 34.622 2.65992 35.0746C2.65992 35.5429 3.0052 35.8837 3.4333 35.8837Z" fill="#092A5E"/>
<path d="M5.03271 34.0872H5.2984V34.4561C5.2984 34.543 5.28216 34.6143 5.28216 34.6143H5.29047C5.38965 34.3125 5.61939 34.0671 5.92896 34.0671C5.96442 34.0671 6.00459 34.0709 6.03633 34.0788V34.3447C6.02381 34.341 5.9767 34.3369 5.93702 34.3369C5.48896 34.3369 5.30249 34.8406 5.30249 35.2375V36.0822H5.03284L5.03271 34.0872Z" fill="#092A5E"/>
<path d="M6.48877 34.0872H6.74627V34.2971C6.74627 34.3842 6.7345 34.4516 6.7345 34.4516H6.74243C6.8653 34.1942 7.12726 34.0391 7.43647 34.0391C7.97578 34.0391 8.30507 34.4676 8.30507 35.0823C8.30507 35.7169 7.93227 36.1291 7.41254 36.1291C7.13111 36.1291 6.88563 35.9828 6.75446 35.7323H6.74627C6.74627 35.7323 6.75843 35.8035 6.75843 35.9068V36.8745H6.48877V34.0872ZM7.38502 35.8875C7.73787 35.8875 8.03132 35.5937 8.03132 35.0861C8.03132 34.5989 7.7696 34.2857 7.39692 34.2857C7.06366 34.2857 6.75061 34.5236 6.75061 35.0901C6.75074 35.4907 6.97663 35.8875 7.38502 35.8875Z" fill="#092A5E"/>
<path d="M9.78132 34.0392C10.364 34.0392 10.8359 34.4835 10.8359 35.0746C10.8359 35.6775 10.364 36.1293 9.78132 36.1293C9.19862 36.1293 8.73047 35.6775 8.73047 35.0746C8.73047 34.4835 9.19849 34.0392 9.78132 34.0392ZM9.78132 35.8837C10.2098 35.8837 10.5585 35.5429 10.5585 35.0746C10.5585 34.622 10.2098 34.2814 9.78132 34.2814C9.35309 34.2814 9.00794 34.622 9.00794 35.0746C9.00781 35.5429 9.35309 35.8837 9.78132 35.8837Z" fill="#092A5E"/>
<path d="M11.3809 34.0872H11.6468V34.4561C11.6468 34.543 11.6303 34.6143 11.6303 34.6143H11.6386C11.7377 34.3125 11.9674 34.0671 12.2771 34.0671C12.3127 34.0671 12.3526 34.0709 12.3845 34.0788V34.3447C12.372 34.341 12.3247 34.3369 12.2852 34.3369C11.8369 34.3369 11.6504 34.8406 11.6504 35.2375V36.0822H11.381L11.3809 34.0872Z" fill="#092A5E"/>
<path d="M13.8557 34.8522H13.9751V34.7973C13.9751 34.4122 13.7646 34.2813 13.483 34.2813C13.2807 34.2813 13.0784 34.3532 12.9161 34.4718L12.7932 34.2656C12.9518 34.1309 13.2335 34.0392 13.4993 34.0392C13.979 34.0392 14.2447 34.3052 14.2447 34.8049V36.0822H13.9864V35.848C13.9864 35.7488 13.9987 35.6812 13.9987 35.6812H13.9904C13.8873 35.923 13.6376 36.1292 13.3163 36.1292C12.9792 36.1292 12.6421 35.9307 12.6421 35.5466C12.6423 34.8919 13.4752 34.8522 13.8557 34.8522ZM13.3644 35.9029C13.7487 35.9029 13.9751 35.507 13.9751 35.1577V35.0669H13.8597C13.5504 35.0669 12.9161 35.0786 12.9161 35.5224C12.9162 35.7091 13.0667 35.9029 13.3644 35.9029Z" fill="#092A5E"/>
<path d="M14.9795 34.3294H14.7178V34.1031H14.9835V33.5359H15.2492V34.1031H15.7529V34.3294H15.2492V35.3283C15.2492 35.7921 15.5466 35.8559 15.7011 35.8559C15.7291 35.8559 15.757 35.8559 15.7926 35.8481V36.0897C15.7685 36.0938 15.729 36.0976 15.6775 36.0976C15.4476 36.0976 14.9795 36.0225 14.9795 35.3562V34.3294Z" fill="#092A5E"/>
<path d="M17.0699 34.0392C17.6211 34.0392 17.9024 34.464 17.9024 34.9593C17.9024 35.0032 17.8983 35.0507 17.8946 35.0941H16.3638C16.3756 35.6016 16.7244 35.8837 17.1371 35.8837C17.3553 35.8837 17.5811 35.7921 17.7432 35.6458L17.8666 35.8521C17.6804 36.0224 17.3909 36.1292 17.1289 36.1292C16.5341 36.1292 16.082 35.7007 16.082 35.0861C16.0822 34.4323 16.5305 34.0392 17.0699 34.0392ZM17.6288 34.8802C17.6128 34.464 17.359 34.2615 17.0616 34.2615C16.7282 34.2615 16.4392 34.4794 16.3756 34.8802H17.6288Z" fill="#092A5E"/>
<path d="M19.4747 34.3294H19.2129V34.1031H19.4786V33.5359H19.7445V34.1031H20.2482V34.3294H19.7445V35.3283C19.7445 35.7921 20.0418 35.8559 20.1963 35.8559C20.2242 35.8559 20.252 35.8559 20.2878 35.8481V36.0897C20.2636 36.0938 20.2242 36.0976 20.1727 36.0976C19.9429 36.0976 19.4749 36.0225 19.4749 35.3562L19.4747 34.3294Z" fill="#092A5E"/>
<path d="M20.7324 34.0872H20.9979V34.4561C20.9979 34.543 20.982 34.6143 20.982 34.6143H20.9897C21.0889 34.3125 21.319 34.0671 21.6282 34.0671C21.6636 34.0671 21.7037 34.0709 21.7355 34.0788V34.3447C21.7234 34.341 21.6762 34.3369 21.6362 34.3369C21.1882 34.3369 21.0022 34.8406 21.0022 35.2375V36.0822H20.7325L20.7324 34.0872Z" fill="#092A5E"/>
<path d="M23.2074 34.8522H23.3263V34.7973C23.3263 34.4122 23.116 34.2813 22.8346 34.2813C22.6323 34.2813 22.4299 34.3532 22.2674 34.4718L22.1445 34.2656C22.3032 34.1309 22.5848 34.0392 22.8503 34.0392C23.3305 34.0392 23.5962 34.3052 23.5962 34.8049V36.0822H23.3385V35.848C23.3385 35.7488 23.3501 35.6812 23.3501 35.6812H23.3423C23.2394 35.923 22.9894 36.1292 22.6682 36.1292C22.3311 36.1292 21.9941 35.9307 21.9941 35.5466C21.994 34.8919 22.8268 34.8522 23.2074 34.8522ZM22.7158 35.9029C23.1007 35.9029 23.3263 35.507 23.3263 35.1577V35.0669H23.2112C22.9022 35.0669 22.2674 35.0786 22.2674 35.5224C22.2675 35.7091 22.4186 35.9029 22.7158 35.9029Z" fill="#092A5E"/>
<path d="M24.0015 34.0873H24.2908L24.8424 35.5504C24.8779 35.6496 24.9096 35.792 24.9096 35.792H24.9174C24.9174 35.792 24.9531 35.6496 24.9888 35.5504L25.5401 34.0873H25.8257L25.0638 36.0821H24.771L24.0015 34.0873Z" fill="#092A5E"/>
<path d="M27.0839 34.0392C27.6349 34.0392 27.9165 34.464 27.9165 34.9593C27.9165 35.0032 27.9126 35.0507 27.9088 35.0941H26.3779C26.3898 35.6016 26.7385 35.8837 27.151 35.8837C27.3693 35.8837 27.5954 35.7921 27.7576 35.6458L27.8809 35.8521C27.6943 36.0224 27.4052 36.1292 27.1432 36.1292C26.5481 36.1292 26.0962 35.7007 26.0962 35.0861C26.0962 34.4323 26.5445 34.0392 27.0839 34.0392ZM27.6427 34.8802C27.6271 34.464 27.3732 34.2615 27.0755 34.2615C26.7425 34.2615 26.4534 34.4794 26.3898 34.8802H27.6427Z" fill="#092A5E"/>
<path d="M28.4653 33.2938H28.735V35.5503C28.735 35.8124 28.8572 35.8521 28.961 35.8521C28.977 35.8521 29.0006 35.8521 29.0241 35.848V36.0896C29.0006 36.0937 28.9692 36.0974 28.9249 36.0974C28.7626 36.0974 28.4653 36.0462 28.4653 35.61V33.2938Z" fill="#092A5E"/>
<path d="M30.4801 35.6495C30.6309 35.8036 30.8649 35.8913 31.0831 35.8913C31.3052 35.8913 31.4838 35.7804 31.4838 35.5704C31.4838 35.1256 30.4208 35.2489 30.4208 34.5948C30.4208 34.2302 30.7341 34.0392 31.0986 34.0392C31.3171 34.0392 31.5512 34.1031 31.7135 34.2578L31.5869 34.4603C31.4713 34.3447 31.2653 34.2773 31.087 34.2773C30.877 34.2773 30.6863 34.3685 30.6863 34.5864C30.6863 35.0429 31.7534 34.9082 31.7534 35.5661C31.7534 35.8952 31.4713 36.1292 31.0792 36.1292C30.8135 36.1292 30.528 36.0378 30.3374 35.8394L30.4801 35.6495Z" fill="#092A5E"/>
<path d="M33.1424 34.0392C33.6932 34.0392 33.975 34.464 33.975 34.9593C33.975 35.0032 33.9711 35.0507 33.9669 35.0941H32.4365C32.4484 35.6016 32.7974 35.8837 33.2096 35.8837C33.4274 35.8837 33.6538 35.7921 33.8166 35.6458L33.9393 35.8521C33.7531 36.0224 33.4635 36.1292 33.202 36.1292C32.6069 36.1292 32.1553 35.7007 32.1553 35.0861C32.1551 34.4323 32.603 34.0392 33.1424 34.0392ZM33.7013 34.8802C33.6856 34.464 33.4319 34.2615 33.1346 34.2615C32.8016 34.2615 32.5117 34.4794 32.4485 34.8802H33.7013Z" fill="#092A5E"/>
<path d="M34.5229 34.0872H34.789V34.4561C34.789 34.543 34.7735 34.6143 34.7735 34.6143H34.7812C34.8804 34.3125 35.1101 34.0671 35.4198 34.0671C35.4555 34.0671 35.4948 34.0709 35.5267 34.0788V34.3447C35.5144 34.341 35.4669 34.3369 35.4275 34.3369C34.9796 34.3369 34.7929 34.8406 34.7929 35.2375V36.0822H34.5231L34.5229 34.0872Z" fill="#092A5E"/>
<path d="M35.7573 34.0873H36.0461L36.5978 35.5504C36.6332 35.6496 36.6651 35.792 36.6651 35.792H36.6734C36.6734 35.792 36.7087 35.6496 36.7445 35.5504L37.2955 34.0873H37.5811L36.8197 36.0821H36.5264L35.7573 34.0873Z" fill="#092A5E"/>
<path d="M38.0347 33.2938H38.3279V33.6309H38.0347V33.2938ZM38.0466 34.0872H38.3163V36.0821H38.0466V34.0872Z" fill="#092A5E"/>
<path d="M39.9105 34.0392C40.1723 34.0392 40.4622 34.1309 40.6405 34.3253L40.5018 34.5277C40.3629 34.3844 40.141 34.2814 39.9195 34.2814C39.483 34.2814 39.142 34.6107 39.142 35.0863C39.142 35.5545 39.483 35.8838 39.9269 35.8838C40.1572 35.8838 40.4066 35.7846 40.5655 35.6102L40.6879 35.8127C40.5132 36.0064 40.2156 36.1294 39.9104 36.1294C39.3201 36.1294 38.8638 35.705 38.8638 35.0864C38.8639 34.4718 39.3242 34.0392 39.9105 34.0392Z" fill="#092A5E"/>
<path d="M41.998 34.0392C42.5487 34.0392 42.8311 34.464 42.8311 34.9593C42.8311 35.0032 42.8266 35.0507 42.8226 35.0941H41.2923C41.3042 35.6016 41.6532 35.8837 42.0656 35.8837C42.2833 35.8837 42.5095 35.7921 42.6722 35.6458L42.7946 35.8521C42.6091 36.0224 42.319 36.1292 42.0579 36.1292C41.4628 36.1292 41.0107 35.7007 41.0107 35.0861C41.0106 34.4323 41.4587 34.0392 41.998 34.0392ZM42.5566 34.8802C42.5413 34.464 42.2872 34.2615 41.9906 34.2615C41.6573 34.2615 41.3674 34.4794 41.3042 34.8802H42.5566Z" fill="#092A5E"/>
<path d="M43.3469 35.6495C43.4983 35.8036 43.7321 35.8913 43.9498 35.8913C44.1727 35.8913 44.3504 35.7804 44.3504 35.5704C44.3504 35.1256 43.2884 35.2489 43.2884 34.5948C43.2884 34.2302 43.6012 34.0392 43.9666 34.0392C44.1843 34.0392 44.4183 34.1031 44.581 34.2578L44.4534 34.4603C44.339 34.3447 44.1328 34.2773 43.9537 34.2773C43.7438 34.2773 43.5532 34.3685 43.5532 34.5864C43.5532 35.0429 44.6203 34.9082 44.6203 35.5661C44.6203 35.8952 44.339 36.1292 43.946 36.1292C43.6807 36.1292 43.3953 36.0378 43.2046 35.8394L43.3469 35.6495Z" fill="#092A5E"/>
<path d="M71.9646 21.1224C67.8212 21.1224 64.4123 24.2599 63.9775 28.2871H66.565C66.9835 25.6789 69.2384 23.6835 71.9646 23.6835C74.9883 23.6835 77.4401 26.1353 77.4401 29.1581C77.4401 32.1819 74.9883 34.6334 71.9646 34.6334C69.2384 34.6334 66.9835 32.6375 66.565 30.0291H63.9775C64.4123 34.0581 67.8212 37.1939 71.9646 37.1939C76.4023 37.1939 80.0003 33.5969 80.0003 29.1582C80.0004 24.7203 76.4023 21.1224 71.9646 21.1224Z" fill="#092A5E"/>
<path d="M71.9645 32.1455C73.6138 32.1455 74.9512 30.807 74.9512 29.1581C74.9512 27.5099 73.6138 26.1716 71.9645 26.1716C70.6186 26.1716 69.4813 27.0634 69.1084 28.2871H71.9645C72.4459 28.2871 72.8355 28.677 72.8355 29.1581C72.8355 29.6393 72.4458 30.0291 71.9645 30.0291H69.1084C69.4813 31.2538 70.6186 32.1455 71.9645 32.1455Z" fill="#D61A1C"/>
<path d="M67.4269 4.40131C67.1943 4.63501 67.1943 5.01339 67.4269 5.2471C67.6601 5.4808 68.0387 5.4808 68.2719 5.2471L72.4981 1.02075C72.7306 0.787299 72.7306 0.408169 72.4981 0.175459C72.2641 -0.0582423 71.8864 -0.0582423 71.6533 0.175459L67.4269 4.40131Z" fill="#FFCD00"/>
<path d="M67.4269 0.739244C67.1943 0.971954 67.1943 1.35084 67.4269 1.58404C67.6601 1.81774 68.0387 1.81774 68.2719 1.58404L68.8352 1.0208C69.0686 0.787597 69.0686 0.409211 68.8352 0.175509C68.6016 -0.0572009 68.223 -0.0572009 67.9904 0.175509L67.4269 0.739244Z" fill="#FFCD00"/>
<path d="M72.3585 6.79695C72.1246 7.03016 72.1246 7.40854 72.3585 7.64175C72.5913 7.87495 72.9706 7.87495 73.2034 7.64175L79.824 1.02099C80.0577 0.787284 80.0577 0.409394 79.824 0.175692C79.5913 -0.0570178 79.2128 -0.0570178 78.9792 0.175692L72.3585 6.79695Z" fill="#FFCD00"/>
<path d="M70.2456 5.24708C70.0112 5.48078 70.0112 5.85818 70.2456 6.09188C70.4778 6.32558 70.857 6.32558 71.0896 6.09188L76.1625 1.02099C76.3957 0.787284 76.3957 0.409394 76.1625 0.175692C75.9283 -0.0570178 75.5498 -0.0570178 75.3172 0.175692L70.2456 5.24708Z" fill="#FFCD00"/>
<path d="M73.9072 9.75522C73.6742 9.52202 73.6742 9.14313 73.9072 8.90943L78.9795 3.83903C79.2132 3.60533 79.5917 3.60533 79.8258 3.83903C80.058 4.07199 80.058 4.45063 79.8258 4.68383L74.7538 9.75522C74.5194 9.98843 74.1409 9.98843 73.9072 9.75522Z" fill="#FFCD00"/>
<path d="M78.4157 12.5728C78.1831 12.3391 78.1831 11.9606 78.4157 11.7269L78.9791 11.1629C79.2128 10.9302 79.5913 10.9302 79.8254 11.1629C80.0576 11.3974 80.0576 11.775 79.8254 12.0089L79.2612 12.5728C79.0285 12.8047 78.6492 12.8047 78.4157 12.5728Z" fill="#FFCD00"/>
<path d="M74.7534 12.5728C74.5191 12.3391 74.5191 11.9606 74.7534 11.7269L78.9791 7.50176C79.2128 7.26756 79.5919 7.26756 79.8239 7.50176C80.0576 7.73472 80.0576 8.11286 79.8239 8.34594L75.5994 12.5729C75.3652 12.8047 74.9863 12.8047 74.7534 12.5728Z" fill="#FFCD00"/>
<path d="M72.1617 12.7476C72.6891 12.7483 73.1029 12.308 73.0165 11.7884C72.609 9.33246 70.6681 7.39094 68.2122 6.98217C67.691 6.89551 67.2508 7.31146 67.2524 7.83801V11.7845C67.2531 12.3112 67.6869 12.7467 68.2156 12.7477L72.1617 12.7476Z" fill="#FFCD00"/>
<path d="M45.2212 4.64354C45.2212 4.22325 45.3407 3.88553 45.5802 3.62951C45.8182 3.37387 46.1167 3.24542 46.4739 3.24542C46.8374 3.24542 47.1333 3.37387 47.36 3.62951C47.5819 3.8797 47.6932 4.21817 47.6932 4.64354V9.09131C47.6932 9.57434 47.8528 9.95136 48.1736 10.2245C48.495 10.4969 48.8712 10.633 49.3027 10.633C49.723 10.633 50.0896 10.4961 50.4023 10.2203C50.7145 9.94466 50.8713 9.56801 50.8713 9.09131V4.64354C50.8713 4.22325 50.9885 3.88553 51.2244 3.62951C51.4597 3.37387 51.7574 3.24542 52.115 3.24542C52.4838 3.24542 52.7823 3.37387 53.0091 3.62951C53.2362 3.8797 53.3504 4.21817 53.3504 4.64354V9.1259C53.3504 9.85825 53.1951 10.497 52.8856 11.0426C52.5764 11.5873 52.115 12.0052 51.501 12.2949C50.8933 12.5961 50.1664 12.7467 49.3203 12.7467C48.0249 12.7467 47.0179 12.4213 46.2994 11.7715C45.5806 11.1211 45.2213 10.239 45.2213 9.1259V4.64354H45.2212Z" fill="#E73C3E"/>
<path d="M62.434 3.56479C61.9748 3.15628 61.2484 3.15963 60.7939 3.56653C60.559 3.77791 60.44 4.06852 60.44 4.4293V8.46534L56.9226 3.76663C56.698 3.42631 56.366 3.24554 55.9633 3.24554C55.6531 3.24554 55.3733 3.35564 55.1313 3.57223C54.8813 3.79539 54.7563 4.08377 54.7563 4.4293V11.558C54.7563 11.9195 54.8785 12.2126 55.1185 12.4272C55.5958 12.852 56.2911 12.8493 56.7485 12.4282C56.9839 12.2111 57.1033 11.9183 57.1033 11.558V7.61955L60.6472 12.2928C60.8864 12.5937 61.2048 12.7469 61.5928 12.7469C61.9035 12.7469 62.1826 12.6366 62.4205 12.4194C62.6644 12.1963 62.7879 11.9061 62.7879 11.558V4.4293C62.7879 4.06852 62.6694 3.77791 62.434 3.56479Z" fill="#E73C3E"/>
<path d="M7.94043 4.64427C7.94043 4.22398 8.05982 3.88601 8.2991 3.63C8.53739 3.37447 8.83594 3.24615 9.19349 3.24615C9.55651 3.24615 9.85257 3.37447 10.0792 3.63C10.3006 3.88019 10.4125 4.21816 10.4125 4.64427V9.09229C10.4125 9.57495 10.5723 9.95234 10.8929 10.2255C11.2137 10.498 11.5904 10.634 12.022 10.634C12.4423 10.634 12.8089 10.4969 13.1215 10.2203C13.434 9.9454 13.5902 9.56899 13.5902 9.09217V4.64427C13.5902 4.22398 13.7075 3.88601 13.9433 3.63C14.179 3.37447 14.4761 3.24615 14.8343 3.24615C15.2035 3.24615 15.5016 3.37447 15.7285 3.63C15.9558 3.88019 16.0698 4.21816 16.0698 4.64427V9.12577C16.0698 9.85886 15.9146 10.4979 15.6049 11.0425C15.2955 11.5881 14.8342 12.0058 14.2202 12.2951C13.6124 12.596 12.8857 12.7475 12.0389 12.7475C10.7436 12.7475 9.7369 12.422 9.01856 11.7717C8.29985 11.1215 7.94043 10.2389 7.94043 9.12564V4.64427Z" fill="#E73C3E"/>
<path d="M25.1528 3.56578C24.6947 3.15616 23.9675 3.15963 23.5127 3.5664C23.2781 3.77878 23.1594 4.0684 23.1594 4.42918V8.46596L19.6414 3.76762C19.4169 3.42631 19.085 3.24554 18.6823 3.24554C18.3721 3.24554 18.092 3.35564 17.8505 3.57236C17.6012 3.79601 17.4751 4.08439 17.4751 4.4293V11.5584C17.4751 11.9204 17.5968 12.2127 17.8382 12.4281C18.3149 12.8526 19.0105 12.8491 19.4673 12.4281C19.7028 12.2115 19.822 11.9187 19.822 11.5584V7.61942L23.3664 12.2932C23.6055 12.5946 23.9238 12.7477 24.312 12.7477C24.6231 12.7477 24.9015 12.6374 25.1401 12.4198C25.383 12.1961 25.5075 11.9069 25.5075 11.5584V4.4293C25.5076 4.06852 25.3882 3.77891 25.1528 3.56578Z" fill="#E73C3E"/>
<path d="M30.9663 6.51091C31.2708 6.2746 31.4536 6.07264 31.4536 5.74806C31.4536 5.36261 31.1315 5.12618 30.74 5.12618C30.3486 5.12618 30.0699 5.34525 30.0699 5.75724C30.0699 6.10785 30.305 6.36213 30.5139 6.56335L30.6791 6.72143L30.9663 6.51091ZM31.9673 9.325L30.4616 7.75579L30.2094 7.92217C29.8353 8.17658 29.6523 8.49235 29.6523 8.88685C29.6523 9.51742 30.1134 9.85067 30.7749 9.85067C31.2449 9.85067 31.6453 9.67512 31.9673 9.325ZM33.2812 7.58941C33.5697 7.58941 33.7924 7.84915 33.7157 8.12922C33.5976 8.56166 33.418 8.96781 33.177 9.31607L33.6519 9.80393C33.8172 9.97366 33.8171 10.2454 33.6513 10.4149C33.4818 10.5886 33.204 10.5886 33.0344 10.4147L32.5825 9.95184L32.4716 10.0526C31.9758 10.4734 31.3752 10.7014 30.7399 10.7014C29.5302 10.7014 28.6772 10.079 28.6772 8.91314C28.6772 8.05384 29.2255 7.5635 29.7478 7.22131L29.8626 7.14767L29.7478 7.01104C29.3734 6.56335 29.1645 6.26543 29.1645 5.73976C29.1645 4.92446 29.7736 4.32825 30.7136 4.32825C31.6451 4.32825 32.3587 4.85417 32.3587 5.72203C32.3587 6.39697 31.8975 6.7916 31.2012 7.28243L32.5238 8.65898C32.6429 8.45925 32.7324 8.22592 32.7975 7.98366C32.8575 7.75914 33.0506 7.58941 33.2812 7.58941Z" fill="#E73C3E"/>
<path d="M0 1.70845C0 0.882623 0.669366 0.213257 1.49507 0.213257H5.76704C6.47484 0.213257 7.04862 0.787035 7.04862 1.49483C7.04862 2.20263 6.47484 2.77641 5.76704 2.77641H3.20388C2.85005 2.77641 2.56316 3.06318 2.56316 3.41714V4.91196C2.56316 5.2658 2.85005 5.55269 3.20388 5.55269H5.47271C6.06261 5.55269 6.54092 6.03076 6.54092 6.6209C6.54092 7.21079 6.06273 7.68911 5.47271 7.68911H3.20388C2.85005 7.68911 2.56316 7.97612 2.56316 8.32983V11.3202C2.56316 12.0281 1.98938 12.6018 1.28158 12.6018C0.573902 12.6018 0.000123912 12.0281 0.000123912 11.3202L0 1.70845Z" fill="#E73C3E"/>
<path d="M43.9762 9.13371C43.9762 10.2531 43.5806 11.1352 42.7892 11.7801C42.0033 12.4245 40.9075 12.7467 39.5015 12.7467C38.4741 12.7467 37.5408 12.5903 36.7017 12.2771C36.3025 12.1281 36.0645 11.7313 36.0645 11.3052C36.0645 10.4871 36.9088 9.95135 37.685 10.209C37.8449 10.2618 37.9967 10.3077 38.14 10.3465C38.7101 10.4991 39.1363 10.5317 39.6067 10.5317C40.1713 10.5317 40.603 10.4216 40.9018 10.201C41.206 9.98061 41.3585 9.65269 41.3585 9.21739C41.3585 8.97427 41.2919 8.75941 41.1593 8.5727C41.0264 8.38078 40.83 8.19692 40.5697 8.02161C40.3151 7.8463 39.8863 7.61012 39.0948 7.22554C38.3531 6.86922 37.7967 6.52741 37.4261 6.19948C37.0553 5.87155 36.7592 5.48994 36.5378 5.05478C36.3164 4.61924 36.2055 4.11042 36.2055 3.52797C36.2055 2.43124 36.5683 1.56896 37.2932 0.941378C38.0237 0.313793 39.0312 0 40.3151 0C40.9462 0 41.5467 0.0764954 42.1166 0.229114C42.3775 0.298419 42.6437 0.38037 42.9148 0.474966C43.4827 0.673582 43.7383 1.31654 43.5118 1.87408C43.2785 2.44835 42.6238 2.7128 42.0359 2.51542C41.8324 2.44711 41.646 2.39169 41.4775 2.34929C41.0566 2.24192 40.7596 2.19779 40.3499 2.19779C39.8631 2.19779 39.4893 2.31371 39.2292 2.54543C38.969 2.77727 38.839 3.0799 38.839 3.45283C38.839 3.68455 38.8916 3.88825 38.9967 4.06356C39.1018 4.23316 39.268 4.39991 39.4948 4.56382C39.7273 4.72201 40.1543 5.00072 41.0125 5.41915C42.1469 5.97322 42.9245 6.53013 43.345 7.09015C43.7659 7.64397 43.9762 8.32524 43.9762 9.13371Z" fill="#E73C3E"/>
</svg>
